<?xml version="1.0" encoding="UTF-8"?>
<svg width="162px" height="30px" viewBox="0 0 162 30" version="1.1" xmlns="http://www.w3.org/2000/svg" xmlns:xlink="http://www.w3.org/1999/xlink">
    <!-- Generator: sketchtool 40.3 (33839) - http://www.bohemiancoding.com/sketch -->
    <title>52F2FC46-D91A-47D7-805D-685F7E33CA0A</title>
    <desc>Created with sketchtool.</desc>
    <defs></defs>
    <g id="Page-1" stroke="none" stroke-width="1" fill="none" fill-rule="evenodd">
        <g id="api_home" transform="translate(-31.000000, -16.000000)">
            <g id="Group-3" transform="translate(-6.000000, 0.000000)">
                <g id="logo_api" transform="translate(37.000000, 16.000000)">
                    <path d="M22.866692,6.33367037 L22.866692,23.0915066 L20.624283,23.0915066 C19.700938,14.7785642 14.4246814,9.63245703 6.11457718,8.5768453 L6.11457718,6.33367037 L22.866692,6.33367037 L22.866692,6.33367037 Z M0.178788455,0.395854398 L0.178788455,14.2507583 L3.08072961,14.2507583 C10.8632082,14.2507583 14.8204006,18.2093023 14.8204006,25.9944388 L14.8204006,28.8973711 L28.6705743,28.8973711 L28.6705743,0.263902932 L0.178788455,0.395854398 L0.178788455,0.395854398 Z" id="Combined-Shape" fill="#75AF26"></path>
                    <g id="ic_settings" transform="translate(0.000000, 17.093023)" fill="#000000">
                        <path d="M10.3284587,6.55603599 C10.3284587,6.37723501 10.3877346,6.19843403 10.3877346,5.96003272 C10.3877346,5.72163141 10.3877346,5.54283043 10.3284587,5.36402945 L11.5732532,4.35082389 C11.691805,4.23162323 11.691805,4.11242258 11.6325291,3.99322192 L10.4470106,1.90721047 C10.3877346,1.84761014 10.2691828,1.78800982 10.091355,1.84761014 L8.60945681,2.44361342 C8.31307717,2.20521211 7.95742161,2.02641113 7.60176605,1.84761014 L7.36466234,0.298001636 C7.42393826,0.119200654 7.24611048,0 7.12755863,0 L4.75652154,0 C4.63796968,0 4.4601419,0.119200654 4.4601419,0.238401309 L4.22303819,1.84761014 C3.86738263,1.9668108 3.57100299,2.20521211 3.21534743,2.44361342 L1.79272517,1.84761014 C1.61489739,1.78800982 1.49634554,1.84761014 1.37779368,1.9668108 L0.192275135,4.05282225 C0.132999207,4.11242258 0.192275135,4.29122356 0.310826989,4.41042421 L1.55562146,5.36402945 C1.55562146,5.54283043 1.49634554,5.72163141 1.49634554,5.96003272 C1.49634554,6.19843403 1.49634554,6.37723501 1.55562146,6.55603599 L0.310826989,7.56924156 C0.192275135,7.68844221 0.192275135,7.80764287 0.251551062,7.92684352 L1.43706961,10.012855 C1.49634554,10.0724553 1.61489739,10.1320556 1.79272517,10.0724553 L3.27462335,9.47645203 C3.57100299,9.71485334 3.92665855,9.89365432 4.28231412,10.0724553 L4.51941783,11.6220638 C4.51941783,11.7412645 4.63796968,11.8604651 4.81579746,11.8604651 L7.18683456,11.8604651 C7.30538641,11.8604651 7.48321419,11.7412645 7.48321419,11.6220638 L7.7203179,10.0724553 C8.07597347,9.89365432 8.43162903,9.71485334 8.72800867,9.47645203 L10.2099068,10.0724553 C10.3284587,10.1320556 10.5062865,10.0724553 10.5655624,9.95325465 L11.751081,7.86724319 C11.8103569,7.74804254 11.8103569,7.56924156 11.691805,7.50964123 L10.3284587,6.55603599 L10.3284587,6.55603599 Z M5.94204008,8.04604417 C4.81579746,8.04604417 3.86738263,7.09243894 3.86738263,5.96003272 C3.86738263,4.8276265 4.81579746,3.87402127 5.94204008,3.87402127 C7.0682827,3.87402127 8.01669754,4.8276265 8.01669754,5.96003272 C8.01669754,7.09243894 7.0682827,8.04604417 5.94204008,8.04604417 L5.94204008,8.04604417 Z" id="Shape"></path>
                    </g>
                    <g id="pb" transform="translate(31.046512, 11.860465)" fill="#75AF26">
                        <g id="Layer_1">
                            <g>
                                <g id="Group">
                                    <path d="M8.11332579,0.160768453 C9.0007208,0.160768453 9.76134509,0.288169869 10.5219694,0.415571284 C11.2825937,0.5429727 12.043218,0.925176946 12.5503008,1.30738119 C13.1841544,1.68958544 13.5644666,2.32659252 13.9447787,2.9635996 C14.3250909,3.72800809 14.4518616,4.619818 14.4518616,5.63902932 C14.4518616,6.53083923 14.3250909,7.29524772 14.0715494,7.9322548 C13.818008,8.56926188 13.5644666,9.07886754 13.1841544,9.46107179 C12.8038423,9.84327604 12.4235301,10.2254803 11.9164473,10.4802831 C11.4093644,10.7350859 11.0290522,10.8624874 10.5219694,10.9898888 C10.0148865,11.1172902 9.50780366,11.2446916 9.12749152,11.2446916 L7.98655508,11.2446916 L4.18343361,11.2446916 L4.18343361,17.1051567 L0.126770715,17.1051567 L0.126770715,0.160768453 L8.11332579,0.160768453 L8.11332579,0.160768453 Z M4.18343361,8.18705763 L7.3527015,8.18705763 C8.36686722,8.18705763 9.0007208,8.05965622 9.50780366,7.67745197 C10.0148865,7.29524772 10.268428,6.65824065 10.268428,5.89383215 C10.268428,5.25682508 10.1416572,4.87462083 10.0148865,4.619818 C9.76134509,4.36501517 9.50780366,4.11021234 9.25426223,3.98281092 C9.0007208,3.8554095 8.62040865,3.72800809 8.36686722,3.72800809 L7.47947221,3.72800809 L4.31020433,3.72800809 L4.31020433,8.18705763 L4.18343361,8.18705763 Z" id="Shape"></path>
                                    <path d="M25.2273724,6.91304348 L24.7202895,6.91304348 L24.2132067,6.91304348 C23.7061238,6.91304348 23.1990409,7.04044489 22.6919581,7.16784631 C22.1848752,7.29524772 21.8045631,7.55005056 21.4242509,7.9322548 C21.0439388,8.31445905 20.7903973,8.82406471 20.6636266,9.58847321 C20.4100852,10.2254803 20.4100852,11.1172902 20.4100852,12.2639029 L20.4100852,17.3599596 L16.7337344,17.3599596 L16.7337344,4.87462083 L20.4100852,4.87462083 L20.4100852,6.91304348 C20.6636266,6.40343782 20.9171681,6.02123357 21.2974802,5.63902932 C21.6777923,5.25682508 21.9313338,5.00202224 22.3116459,4.87462083 C22.6919581,4.74721941 23.0722702,4.619818 23.5793531,4.49241658 C23.9596652,4.36501517 24.4667481,4.36501517 24.8470602,4.36501517 L25.2273724,4.36501517 L25.2273724,6.91304348 L25.2273724,6.91304348 Z" id="Shape"></path>
                                    <path d="M27.0021624,0.160768453 L30.6785131,0.160768453 L30.6785131,3.09100101 L27.0021624,3.09100101 L27.0021624,0.160768453 L27.0021624,0.160768453 Z M30.6785131,4.87462083 L30.6785131,17.3599596 L27.0021624,17.3599596 L27.0021624,4.87462083 L30.6785131,4.87462083 L30.6785131,4.87462083 Z" id="Shape"></path>
                                    <polygon id="Shape" points="41.3272533 4.87462083 45.2571454 4.87462083 40.6933997 17.3599596 36.6367368 17.3599596 32.072991 4.87462083 36.0028832 4.87462083 38.6650682 13.9201213"></polygon>
                                    <path d="M46.778394,8.95146613 C46.778394,8.18705763 46.9051647,7.67745197 47.1587062,7.16784631 C47.4122476,6.65824065 47.665789,6.2760364 48.0461012,5.89383215 C48.4264133,5.51162791 48.8067255,5.25682508 49.1870376,5.12942366 C49.5673498,5.00202224 50.0744326,4.74721941 50.4547448,4.74721941 C50.8350569,4.619818 51.2153691,4.619818 51.5956812,4.619818 L52.4830762,4.619818 C53.3704712,4.619818 54.1310955,4.74721941 54.8917198,4.87462083 C55.5255734,5.00202224 56.0326562,5.25682508 56.5397391,5.51162791 C56.9200513,5.76643074 57.3003634,6.02123357 57.5539048,6.40343782 C57.8074463,6.78564206 57.934217,7.04044489 58.0609877,7.42264914 C58.1877584,7.80485339 58.1877584,8.05965622 58.3145291,8.44186047 L58.3145291,9.33367037 L58.1877584,15.0667341 C58.1877584,15.7037412 58.1877584,16.3407482 58.3145291,16.7229525 C58.4412998,17.1051567 58.5680706,17.3599596 58.9483827,17.487361 L58.9483827,17.7421638 L55.0184905,17.7421638 L54.6381784,16.4681496 L54.5114077,16.4681496 C54.0043248,17.1051567 53.3704712,17.487361 52.6098469,17.7421638 C51.8492226,17.9969666 51.0885983,18.124368 50.3279741,18.124368 C49.3138083,18.124368 48.553184,17.9969666 48.0461012,17.7421638 C47.5390183,17.487361 47.0319354,17.1051567 46.778394,16.7229525 C46.5248526,16.3407482 46.2713112,15.958544 46.2713112,15.5763397 C46.1445404,15.1941355 46.1445404,14.8119312 46.1445404,14.5571284 C46.1445404,13.7927199 46.2713112,13.2831143 46.5248526,12.7735086 C46.778394,12.2639029 47.1587062,11.8816987 47.5390183,11.6268959 C47.9193305,11.372093 48.4264133,11.1172902 49.0602669,10.9898888 C49.5673498,10.8624874 50.2012033,10.7350859 50.7082862,10.6076845 C51.3421398,10.4802831 51.9759934,10.4802831 52.4830762,10.3528817 C52.9901591,10.3528817 53.3704712,10.2254803 53.6240127,10.2254803 C53.8775541,10.0980789 54.1310955,10.0980789 54.2578662,9.97067745 C54.3846369,9.84327604 54.5114077,9.58847321 54.5114077,9.33367037 L54.5114077,8.56926188 C54.5114077,8.18705763 54.3846369,7.80485339 54.2578662,7.67745197 C54.1310955,7.42264914 53.8775541,7.29524772 53.6240127,7.16784631 C53.3704712,7.04044489 53.2437005,7.04044489 52.9901591,7.04044489 L52.4830762,7.04044489 L51.8492226,7.04044489 C51.5956812,7.04044489 51.3421398,7.16784631 51.0885983,7.29524772 C50.8350569,7.42264914 50.5815155,7.67745197 50.4547448,7.9322548 C50.3279741,8.18705763 50.2012033,8.56926188 50.2012033,8.95146613 L46.778394,8.95146613 L46.778394,8.95146613 Z M54.5114077,11.4994944 C54.2578662,11.6268959 54.0043248,11.7542973 53.8775541,11.7542973 C53.7507834,11.7542973 53.6240127,11.8816987 53.3704712,11.8816987 C53.2437005,11.8816987 53.1169298,12.0091001 52.8633884,12.0091001 C52.6098469,12.0091001 52.3563055,12.1365015 51.9759934,12.1365015 C51.7224519,12.1365015 51.5956812,12.2639029 51.3421398,12.2639029 C51.0885983,12.2639029 50.8350569,12.3913043 50.5815155,12.5187058 C50.3279741,12.6461072 50.2012033,12.7735086 50.0744326,13.0283114 C49.9476619,13.2831143 49.8208912,13.5379171 49.8208912,13.9201213 C49.8208912,14.1749242 49.9476619,14.429727 50.0744326,14.6845298 C50.2012033,14.8119312 50.3279741,15.0667341 50.5815155,15.0667341 C50.8350569,15.1941355 50.9618276,15.1941355 51.2153691,15.3215369 L51.8492226,15.3215369 C52.1027641,15.3215369 52.3563055,15.3215369 52.6098469,15.1941355 C52.8633884,15.0667341 53.2437005,14.9393327 53.4972419,14.6845298 C53.7507834,14.429727 54.0043248,14.1749242 54.2578662,13.7927199 C54.5114077,13.4105157 54.5114077,12.90091 54.5114077,12.2639029 L54.5114077,11.4994944 L54.5114077,11.4994944 Z" id="Shape"></path>
                                    <path d="M60.0893191,4.87462083 L62.371192,4.87462083 L62.371192,1.17997978 L66.0475428,1.17997978 L66.0475428,4.87462083 L68.7097278,4.87462083 L68.7097278,7.42264914 L66.0475428,7.42264914 L66.0475428,13.4105157 L66.0475428,14.0475228 C66.0475428,14.3023256 66.0475428,14.429727 66.1743135,14.5571284 C66.3010842,14.6845298 66.4278549,14.8119312 66.5546256,14.9393327 C66.8081671,15.0667341 67.0617085,15.0667341 67.4420206,15.0667341 C67.6955621,15.0667341 67.9491035,15.0667341 68.2026449,14.9393327 C68.4561864,14.9393327 68.5829571,14.8119312 68.7097278,14.8119312 L68.7097278,17.3599596 C68.2026449,17.487361 67.6955621,17.487361 67.1884792,17.6147624 C66.6813963,17.7421638 66.1743135,17.7421638 65.6672306,17.7421638 C65.033377,17.7421638 64.5262942,17.6147624 64.145982,17.487361 C63.7656699,17.3599596 63.3853577,17.1051567 63.1318163,16.8503539 C62.8782749,16.5955511 62.6247335,16.2133468 62.6247335,15.7037412 C62.4979627,15.1941355 62.4979627,14.6845298 62.4979627,14.0475228 L62.4979627,7.42264914 L60.2160899,7.42264914 L60.2160899,4.87462083 L60.0893191,4.87462083 Z" id="Shape"></path>
                                    <path d="M79.6120093,0.160768453 C80.7529458,0.160768453 81.6403408,0.288169869 82.2741944,0.5429727 C82.9080479,0.797775531 83.5419015,1.17997978 83.9222137,1.56218402 C84.3025258,1.94438827 84.5560672,2.45399393 84.682838,2.9635996 C84.8096087,3.47320526 84.9363794,3.98281092 84.9363794,4.36501517 C84.9363794,5.38422649 84.682838,6.14863498 84.1757551,6.65824065 C83.6686722,7.16784631 83.0348186,7.67745197 82.1474236,7.9322548 L82.1474236,7.9322548 C82.5277358,8.05965622 82.9080479,8.05965622 83.2883601,8.31445905 C83.6686722,8.44186047 84.0489844,8.6966633 84.4292965,9.07886754 C84.8096087,9.46107179 85.0631501,9.84327604 85.3166915,10.3528817 C85.570233,10.8624874 85.6970037,11.4994944 85.6970037,12.2639029 C85.6970037,13.2831143 85.4434622,14.1749242 85.0631501,14.8119312 C84.682838,15.4489383 84.1757551,15.958544 83.5419015,16.2133468 C82.9080479,16.5955511 82.2741944,16.7229525 81.3867993,16.8503539 C80.6261751,16.9777553 79.8655508,16.9777553 79.1049265,16.9777553 L70.9916007,16.9777553 L70.9916007,0.160768453 L79.6120093,0.160768453 L79.6120093,0.160768453 Z M75.0482636,7.04044489 L78.7246143,7.04044489 C79.1049265,7.04044489 79.4852386,7.04044489 79.73878,6.91304348 C79.9923215,6.78564206 80.2458629,6.65824065 80.3726336,6.40343782 C80.4994043,6.2760364 80.6261751,6.02123357 80.6261751,5.76643074 C80.6261751,5.51162791 80.7529458,5.38422649 80.7529458,5.25682508 C80.7529458,5.12942366 80.7529458,4.87462083 80.6261751,4.74721941 C80.6261751,4.49241658 80.4994043,4.36501517 80.2458629,4.23761375 C80.1190922,4.11021234 79.8655508,3.98281092 79.6120093,3.8554095 C79.3584679,3.72800809 78.9781558,3.72800809 78.4710729,3.72800809 L74.9214929,3.72800809 L74.9214929,7.04044489 L75.0482636,7.04044489 Z M75.0482636,14.0475228 L79.2316972,14.0475228 C79.3584679,14.0475228 79.6120093,14.0475228 79.8655508,13.9201213 C80.1190922,13.9201213 80.3726336,13.7927199 80.6261751,13.6653185 C80.8797165,13.5379171 81.0064872,13.2831143 81.2600286,13.0283114 C81.3867993,12.7735086 81.5135701,12.3913043 81.5135701,12.0091001 C81.5135701,11.6268959 81.3867993,11.2446916 81.2600286,10.9898888 C81.1332579,10.7350859 80.8797165,10.4802831 80.6261751,10.3528817 C80.3726336,10.2254803 80.1190922,10.0980789 79.73878,10.0980789 C79.3584679,10.0980789 79.1049265,9.97067745 78.7246143,9.97067745 L75.0482636,9.97067745 L75.0482636,14.0475228 L75.0482636,14.0475228 Z" id="Shape"></path>
                                    <path d="M88.6127301,8.95146613 C88.6127301,8.18705763 88.7395008,7.67745197 88.9930423,7.16784631 C89.2465837,6.65824065 89.5001251,6.2760364 89.8804373,5.89383215 C90.2607494,5.51162791 90.6410616,5.25682508 91.0213737,5.12942366 C91.4016859,5.00202224 91.9087687,4.74721941 92.2890809,4.74721941 C92.669393,4.619818 93.0497052,4.619818 93.4300173,4.619818 L94.3174123,4.619818 C95.2048073,4.619818 95.9654316,4.74721941 96.7260559,4.87462083 C97.3599095,5.00202224 97.8669924,5.25682508 98.3740752,5.51162791 C98.7543874,5.76643074 99.1346995,6.02123357 99.3882409,6.40343782 C99.6417824,6.78564206 99.7685531,7.04044489 99.8953238,7.42264914 C100.022095,7.80485339 100.022095,8.05965622 100.148865,8.44186047 L100.148865,9.33367037 L100.022095,15.0667341 C100.022095,15.7037412 100.022095,16.3407482 100.148865,16.7229525 C100.275636,17.1051567 100.402407,17.3599596 100.782719,17.487361 L100.782719,17.7421638 L96.8528266,17.7421638 L96.5992852,16.4681496 L96.4725145,16.4681496 C95.9654316,17.1051567 95.3315781,17.487361 94.5709538,17.7421638 C93.8103295,17.9969666 93.0497052,18.124368 92.2890809,18.124368 C91.2749152,18.124368 90.5142909,17.9969666 90.007208,17.7421638 C89.5001251,17.487361 88.9930423,17.1051567 88.7395008,16.7229525 C88.4859594,16.3407482 88.232418,15.958544 88.232418,15.5763397 C88.1056473,15.1941355 88.1056473,14.8119312 88.1056473,14.5571284 C88.1056473,13.7927199 88.232418,13.2831143 88.4859594,12.7735086 C88.7395008,12.2639029 89.119813,11.8816987 89.5001251,11.6268959 C89.8804373,11.372093 90.3875201,11.1172902 91.0213737,10.9898888 C91.5284566,10.8624874 92.1623102,10.7350859 92.669393,10.6076845 C93.3032466,10.4802831 93.9371002,10.4802831 94.444183,10.3528817 C94.9512659,10.3528817 95.3315781,10.2254803 95.5851195,10.2254803 C95.8386609,10.0980789 96.0922023,10.0980789 96.2189731,9.97067745 C96.3457438,9.84327604 96.4725145,9.58847321 96.4725145,9.33367037 L96.4725145,8.56926188 C96.4725145,8.18705763 96.3457438,7.80485339 96.2189731,7.67745197 C96.0922023,7.42264914 95.8386609,7.29524772 95.5851195,7.16784631 C95.3315781,7.04044489 95.2048073,7.04044489 94.9512659,7.04044489 L94.444183,7.04044489 L93.8103295,7.04044489 C93.556788,7.04044489 93.3032466,7.16784631 93.0497052,7.29524772 C92.7961637,7.42264914 92.5426223,7.67745197 92.4158516,7.9322548 C92.2890809,8.18705763 92.1623102,8.56926188 92.1623102,8.95146613 L88.6127301,8.95146613 L88.6127301,8.95146613 Z M96.4725145,11.4994944 C96.2189731,11.6268959 95.9654316,11.7542973 95.8386609,11.7542973 C95.7118902,11.7542973 95.5851195,11.8816987 95.3315781,11.8816987 C95.2048073,11.8816987 95.0780366,12.0091001 94.8244952,12.0091001 C94.5709538,12.0091001 94.3174123,12.1365015 93.9371002,12.1365015 C93.6835588,12.1365015 93.556788,12.2639029 93.3032466,12.2639029 C93.0497052,12.2639029 92.7961637,12.3913043 92.5426223,12.5187058 C92.2890809,12.6461072 92.1623102,12.7735086 92.0355394,13.0283114 C91.9087687,13.2831143 91.781998,13.5379171 91.781998,13.9201213 C91.781998,14.1749242 91.9087687,14.429727 92.0355394,14.6845298 C92.1623102,14.8119312 92.2890809,15.0667341 92.5426223,15.0667341 C92.7961637,15.1941355 92.9229345,15.1941355 93.1764759,15.3215369 L93.8103295,15.3215369 C94.0638709,15.3215369 94.3174123,15.3215369 94.5709538,15.1941355 C94.8244952,15.0667341 95.2048073,14.9393327 95.4583488,14.6845298 C95.7118902,14.429727 95.9654316,14.1749242 96.2189731,13.7927199 C96.4725145,13.4105157 96.4725145,12.90091 96.4725145,12.2639029 L96.4725145,11.4994944 L96.4725145,11.4994944 Z" id="Shape"></path>
                                    <path d="M106.740942,6.40343782 C107.248025,5.76643074 107.881879,5.25682508 108.642503,4.87462083 C109.403127,4.619818 110.163752,4.36501517 111.051147,4.36501517 C111.431459,4.36501517 111.938542,4.36501517 112.445625,4.49241658 C112.952708,4.619818 113.33302,4.74721941 113.840103,5.12942366 C114.220415,5.51162791 114.600727,6.02123357 114.854268,6.65824065 C115.10781,7.29524772 115.23458,8.31445905 115.23458,9.46107179 L115.23458,17.2325581 L111.55823,17.2325581 L111.55823,9.97067745 L111.55823,8.95146613 C111.55823,8.56926188 111.431459,8.18705763 111.304688,7.9322548 C111.177917,7.55005056 110.924376,7.29524772 110.670835,7.16784631 C110.417293,6.91304348 110.036981,6.78564206 109.529898,6.78564206 C108.896045,6.78564206 108.388962,6.91304348 108.13542,7.29524772 C107.755108,7.55005056 107.501567,7.9322548 107.374796,8.31445905 C107.248025,8.6966633 107.121255,9.07886754 107.121255,9.46107179 L107.121255,10.2254803 L107.121255,17.2325581 L103.444904,17.2325581 L103.444904,4.74721941 L106.994484,4.74721941 L106.994484,6.40343782 L106.740942,6.40343782 Z" id="Shape"></path>
                                    <polygon id="Shape" points="126.136862 4.87462083 130.573837 4.87462083 125.629779 9.71587462 130.954149 17.2325581 126.517174 17.2325581 123.094365 12.0091001 121.826658 13.2831143 121.826658 17.1051567 118.150307 17.1051567 118.150307 0.160768453 121.826658 0.160768453 121.826658 9.58847321"></polygon>
                                </g>
                            </g>
                        </g>
                    </g>
                </g>
            </g>
        </g>
    </g>
</svg>